<svg width="300" height="300" version="1.1" xmlns="http://www.w3.org/2000/svg" xmlns:xlink= "http://www.w3.org/1999/xlink"><rect width="300" height="300" style="fill:#000;stroke:none;" /><style type="text/css" ><![CDATA[.borderinside {stroke:none; fill:#000;} .borderoutside {stroke:none; fill:#fff;}]]></style><polygon points=" 59.848484848484844,23.245372718823084 62.878787878787875,19.571325551252734 59.848484848484844,15.897278383682398 53.787878787878796,15.897278383682398 50.75757575757575,12.223231216112048 53.787878787878796,8.549184048541711 50.75757575757575,4.875136880971375 53.787878787878796,1.201089713401025 59.848484848484844,1.201089713401025 62.878787878787875,-2.4729574541693253 68.93939393939394,-2.4729574541693253 71.96969696969697,-6.147004621739676 68.93939393939394,-9.821051789310026 71.96969696969697,-13.495098956880362 78.03030303030303,-13.495098956880362 81.06060606060606,-9.821051789310026 87.12121212121212,-9.821051789309998 90.15151515151516,-6.1470046217396614 96.21212121212122,-6.1470046217396614 99.24242424242425,-2.4729574541693253 105.30303030303031,-2.4729574541693253 108.33333333333334,-6.1470046217396614 114.3939393939394,-6.1470046217396614 117.42424242424244,-9.821051789310026 123.48484848484847,-9.821051789309998 126.51515151515153,-6.1470046217396614 123.48484848484847,-2.4729574541693253 117.42424242424244,-2.4729574541693253 114.3939393939394,1.201089713401025 117.42424242424244,4.875136880971375 123.48484848484847,4.875136880971375 126.51515151515153,8.549184048541711 123.48484848484847,12.223231216112048 126.51515151515153,15.897278383682398 132.5757575757576,15.897278383682398 135.6060606060606,12.223231216112048 141.66666666666666,12.223231216112048 144.6969696969697,15.897278383682398 150.75757575757578,15.897278383682398 153.78787878787878,12.223231216112048 159.84848484848484,12.223231216112048 162.87878787878788,15.897278383682398 159.84848484848484,19.571325551252734 162.87878787878788,23.245372718823084 159.84848484848484,26.919419886393435 162.87878787878788,30.593467053963785 159.84848484848484,34.26751422153412 162.87878787878788,37.94156138910447 159.84848484848484,41.61560855667481 162.87878787878788,45.28965572424517 168.93939393939394,45.28965572424517 171.96969696969697,41.61560855667481 178.03030303030303,41.61560855667481 181.06060606060606,37.94156138910447 187.12121212121212,37.94156138910447 190.15151515151516,41.61560855667481 187.12121212121212,45.28965572424517 190.15151515151516,48.96370289181551 187.12121212121212,52.637750059385844 190.15151515151516,56.311797226956195 196.21212121212122,56.311797226956195 199.24242424242422,59.985844394526545 196.21212121212122,63.65989156209688 199.24242424242422,67.33393872966724 205.30303030303028,67.33393872966724 208.33333333333334,71.00798589723757 205.30303030303028,74.68203306480791 199.24242424242422,74.68203306480791 196.21212121212122,78.35608023237825 199.24242424242422,82.03012739994861 196.21212121212122,85.70417456751895 190.15151515151516,85.70417456751895 187.12121212121212,89.37822173508928 190.15151515151516,93.05226890265965 187.12121212121212,96.72631607022998 190.15151515151516,100.40036323780032 196.21212121212122,100.40036323780032 199.24242424242422,104.07441040537068 205.30303030303028,104.07441040537068 208.33333333333334,100.40036323780032 214.3939393939394,100.40036323780032 217.42424242424246,104.07441040537068 214.3939393939394,107.74845757294102 208.33333333333334,107.74845757294102 205.30303030303028,111.42250474051136 208.33333333333334,115.09655190808172 205.30303030303028,118.77059907565206 208.33333333333334,122.4446462432224 205.30303030303028,126.11869341079273 199.24242424242422,126.11869341079273 196.21212121212122,129.7927405783631 199.24242424242422,133.46678774593343 196.21212121212122,137.14083491350377 199.24242424242422,140.81488208107413 196.21212121212122,144.48892924864447 190.15151515151516,144.48892924864447 187.12121212121212,148.1629764162148 190.15151515151516,151.83702358378517 187.12121212121212,155.5110707513555 181.06060606060606,155.5110707513555 178.03030303030303,159.18511791892587 171.96969696969697,159.18511791892587 168.93939393939394,162.8591650864962 171.96969696969697,166.53321225406654 168.93939393939394,170.20725942163688 171.96969696969697,173.88130658920724 168.93939393939394,177.55535375677758 162.87878787878788,177.55535375677758 159.84848484848484,181.22940092434794 153.78787878787878,181.22940092434794 150.75757575757578,184.90344809191828 144.6969696969697,184.90344809191828 141.66666666666666,188.57749525948861 135.6060606060606,188.57749525948861 132.57575757575756,192.25154242705895 126.51515151515153,192.25154242705895 123.48484848484847,188.57749525948861 126.51515151515153,184.90344809191828 123.48484848484847,181.22940092434794 126.51515151515153,177.55535375677758 123.48484848484847,173.88130658920724 117.42424242424244,173.88130658920724 114.3939393939394,177.55535375677758 108.33333333333334,177.55535375677758 105.30303030303031,181.22940092434794 99.24242424242425,181.22940092434794 96.21212121212122,177.55535375677758 90.15151515151516,177.55535375677758 87.12121212121212,181.2294009243479 90.15151515151516,184.90344809191828 87.12121212121212,188.57749525948861 81.06060606060606,188.57749525948861 78.03030303030303,192.25154242705895 71.96969696969697,192.25154242705895 68.93939393939394,188.57749525948861 62.878787878787875,188.57749525948861 59.848484848484844,184.90344809191828 62.878787878787875,181.22940092434794 59.848484848484844,177.55535375677758 53.787878787878796,177.55535375677758 50.75757575757575,181.22940092434794 44.6969696969697,181.22940092434794 41.66666666666667,184.90344809191828 44.6969696969697,188.57749525948861 41.66666666666666,192.25154242705895 35.60606060606061,192.25154242705895 32.57575757575758,188.57749525948861 35.60606060606061,184.90344809191828 32.575757575757564,181.22940092434794 26.515151515151516,181.22940092434794 23.4848484848485,177.55535375677758 17.424242424242422,177.55535375677758 14.393939393939391,181.22940092434794 8.333333333333343,181.22940092434794 5.303030303030312,184.90344809191828 -0.7575757575757507,184.90344809191828 -3.787878787878782,181.22940092434794 -0.7575757575757507,177.55535375677758 -3.787878787878782,173.88130658920724 -0.7575757575757507,170.20725942163688 -3.787878787878782,166.53321225406654 -0.7575757575757507,162.8591650864962 -3.787878787878782,159.18511791892587 -9.848484848484844,159.18511791892587 -12.878787878787875,155.5110707513555 -18.939393939393938,155.5110707513555 -21.96969696969697,159.18511791892587 -28.03030303030303,159.18511791892587 -31.060606060606062,162.8591650864962 -37.12121212121211,162.8591650864962 -40.15151515151514,166.53321225406654 -46.21212121212122,166.53321225406654 -49.24242424242425,162.8591650864962 -46.21212121212122,159.18511791892587 -40.15151515151514,159.18511791892587 -37.12121212121211,155.5110707513555 -40.15151515151514,151.83702358378517 -46.21212121212122,151.83702358378517 -49.24242424242425,148.1629764162148 -46.21212121212122,144.48892924864447 -49.24242424242425,140.81488208107413 -55.30303030303031,140.81488208107413 -58.333333333333314,137.1408349135038 -64.39393939393938,137.1408349135038 -67.42424242424241,133.46678774593343 -64.39393939393938,129.7927405783631 -67.42424242424241,126.11869341079273 -64.39393939393938,122.4446462432224 -58.333333333333314,122.4446462432224 -55.30303030303031,118.77059907565206 -58.333333333333314,115.09655190808172 -55.30303030303031,111.42250474051136 -58.333333333333314,107.74845757294102 -64.39393939393938,107.74845757294102 -67.42424242424241,104.07441040537068 -64.39393939393938,100.40036323780032 -58.333333333333314,100.40036323780032 -55.30303030303031,96.72631607022998 -58.333333333333314,93.05226890265965 -55.30303030303031,89.37822173508928 -58.333333333333314,85.70417456751895 -64.39393939393938,85.70417456751895 -67.42424242424241,89.37822173508928 -73.48484848484847,89.37822173508928 -76.5151515151515,85.70417456751895 -73.48484848484847,82.03012739994861 -76.5151515151515,78.35608023237825 -73.48484848484847,74.68203306480791 -76.5151515151515,71.00798589723757 -82.57575757575756,71.00798589723757 -85.6060606060606,67.33393872966724 -82.57575757575756,63.65989156209688 -76.5151515151515,63.65989156209688 -73.48484848484847,67.33393872966724 -67.42424242424241,67.33393872966724 -64.39393939393938,63.65989156209688 -67.42424242424241,59.985844394526545 -64.39393939393938,56.311797226956195 -58.333333333333314,56.311797226956195 -55.30303030303031,52.637750059385844 -49.24242424242425,52.637750059385844 -46.21212121212122,56.311797226956195 -40.15151515151514,56.311797226956195 -37.12121212121211,52.637750059385844 -40.15151515151514,48.96370289181551 -37.12121212121211,45.28965572424517 -40.15151515151514,41.61560855667481 -37.12121212121211,37.94156138910447 -31.060606060606062,37.94156138910447 -28.03030303030303,34.26751422153412 -31.060606060606062,30.593467053963785 -28.03030303030303,26.919419886393435 -21.96969696969697,26.919419886393435 -18.939393939393938,30.593467053963785 -12.878787878787875,30.593467053963785 -9.848484848484844,26.919419886393435 -12.878787878787875,23.245372718823084 -9.848484848484844,19.571325551252734 -3.787878787878782,19.571325551252734 -0.7575757575757507,23.245372718823084 5.303030303030312,23.245372718823084 8.333333333333343,26.919419886393435 14.393939393939391,26.919419886393435 17.424242424242422,23.245372718823084 14.393939393939391,19.571325551252734 17.424242424242422,15.897278383682398 14.393939393939391,12.223231216112062 8.333333333333343,12.223231216112062 5.303030303030312,8.549184048541711 8.333333333333343,4.875136880971375 14.393939393939391,4.875136880971375 17.424242424242422,8.549184048541697 23.4848484848485,8.549184048541697 26.515151515151516,12.223231216112048 32.57575757575758,12.223231216112048 35.60606060606061,8.549184048541697 41.66666666666667,8.549184048541697 44.6969696969697,12.223231216112048 41.66666666666666,15.897278383682398 35.60606060606061,15.897278383682398 32.57575757575758,19.571325551252734 35.60606060606061,23.245372718823084 41.66666666666667,23.245372718823084 44.6969696969697,19.571325551252734 50.75757575757575,19.571325551252734 53.787878787878796,23.245372718823084" class="countrypath borderoutside" /><polygon points=" -0.7575757575757507,45.28965572424517 5.303030303030312,45.28965572424517 8.333333333333343,41.61560855667481 5.303030303030312,37.94156138910447 8.333333333333343,34.26751422153412 5.303030303030312,30.593467053963785 -0.7575757575757507,30.593467053963785 -3.787878787878782,34.26751422153412 -0.7575757575757507,37.94156138910447 -3.787878787878782,41.61560855667481" class="countrypath borderinside" /></svg>