<svg width="300" height="300" version="1.1" xmlns="http://www.w3.org/2000/svg" xmlns:xlink= "http://www.w3.org/1999/xlink"><rect width="300" height="300" style="fill:#000;stroke:none;" /><style type="text/css" ><![CDATA[.borderinside {stroke:none; fill:#000;} .borderoutside {stroke:none; fill:#fff;}]]></style><polygon points=" 139.7058823529412,125.03809130268385 142.64705882352945,121.47210434592441 139.7058823529412,117.90611738916496 133.82352941176472,117.90611738916496 130.8823529411765,114.34013043240549 133.82352941176472,110.77414347564604 130.8823529411765,107.2081565188866 133.82352941176472,103.64216956212712 139.7058823529412,103.64216956212712 142.64705882352945,100.07618260536768 148.5294117647059,100.07618260536768 151.47058823529414,96.51019564860823 148.5294117647059,92.94420869184879 151.47058823529414,89.37822173508933 157.3529411764706,89.37822173508933 160.29411764705884,85.81223477832987 166.1764705882353,85.81223477832987 169.11764705882354,82.24624782157042 166.1764705882353,78.68026086481098 169.11764705882356,75.11427390805152 175.00000000000003,75.11427390805152 177.94117647058826,78.68026086481098 175.00000000000003,82.24624782157042 177.94117647058826,85.81223477832987 183.82352941176472,85.81223477832987 186.76470588235296,82.24624782157042 192.64705882352942,82.24624782157042 195.58823529411768,85.81223477832987 192.64705882352942,89.37822173508933 195.58823529411768,92.94420869184879 201.47058823529414,92.94420869184879 204.41176470588238,96.51019564860823 210.29411764705884,96.51019564860823 213.23529411764707,100.07618260536768 219.11764705882356,100.07618260536768 222.0588235294118,103.64216956212712 227.94117647058826,103.64216956212712 230.8823529411765,107.2081565188866 236.76470588235296,107.2081565188866 239.7058823529412,103.64216956212712 245.58823529411765,103.64216956212712 248.52941176470588,107.2081565188866 245.58823529411765,110.77414347564604 248.52941176470588,114.34013043240549 245.58823529411765,117.90611738916496 248.52941176470588,121.47210434592441 245.58823529411765,125.03809130268385 248.52941176470588,128.6040782594433 245.58823529411765,132.17006521620274 248.52941176470588,135.73605217296222 245.58823529411765,139.30203912972166 248.52941176470588,142.8680260864811 245.58823529411765,146.43401304324058 239.7058823529412,146.43401304324058 236.76470588235296,150.00000000000003 239.7058823529412,153.56598695675947 236.76470588235296,157.13197391351892 230.8823529411765,157.13197391351892 227.94117647058826,153.56598695675947 222.0588235294118,153.56598695675947 219.11764705882354,157.13197391351892 213.23529411764707,157.13197391351892 210.29411764705884,160.69796087027837 204.41176470588238,160.69796087027837 201.47058823529414,157.13197391351892 195.58823529411768,157.13197391351892 192.64705882352942,160.69796087027837 186.76470588235296,160.69796087027837 183.82352941176472,164.26394782703784 177.94117647058826,164.26394782703784 175.00000000000003,167.82993478379728 177.94117647058826,171.39592174055673 175.00000000000003,174.9619086973162 169.11764705882356,174.9619086973162 166.1764705882353,178.52789565407565 160.29411764705884,178.52789565407565 157.3529411764706,174.9619086973162 160.29411764705884,171.39592174055673 157.3529411764706,167.82993478379728 151.47058823529414,167.82993478379728 148.5294117647059,171.39592174055673 142.64705882352945,171.39592174055673 139.7058823529412,174.9619086973162 133.82352941176472,174.9619086973162 130.8823529411765,178.52789565407565 125.00000000000003,178.52789565407565 122.0588235294118,174.9619086973162 125.00000000000003,171.39592174055673 122.0588235294118,167.82993478379728 125.00000000000003,164.26394782703784 122.0588235294118,160.69796087027837 125.00000000000003,157.13197391351892 130.8823529411765,157.13197391351892 133.82352941176472,153.56598695675947 130.8823529411765,150.00000000000003 125.00000000000003,150.00000000000003 122.0588235294118,146.43401304324058 116.17647058823533,146.43401304324058 113.2352941176471,142.8680260864811 107.35294117647061,142.8680260864811 104.41176470588238,139.30203912972166 107.35294117647061,135.73605217296222 104.41176470588238,132.17006521620274 107.35294117647061,128.6040782594433 104.41176470588238,125.03809130268385 107.35294117647061,121.47210434592441 113.2352941176471,121.47210434592441 116.17647058823533,125.03809130268385 122.0588235294118,125.03809130268385 125.00000000000003,121.47210434592441 130.8823529411765,121.47210434592441 133.82352941176472,125.03809130268385" class="countrypath borderoutside" /><polygon points=" 227.94117647058826,139.30203912972166 230.8823529411765,142.8680260864811 236.76470588235296,142.8680260864811 239.7058823529412,139.30203912972166 236.76470588235296,135.73605217296222 230.8823529411765,135.73605217296222" class="countrypath borderinside" /><polygon points=" 160.29411764705884,171.39592174055673 157.3529411764706,174.9619086973162 160.29411764705884,178.52789565407565 166.1764705882353,178.52789565407565 169.11764705882356,174.9619086973162 175.00000000000003,174.9619086973162 177.94117647058826,171.39592174055673 175.00000000000003,167.82993478379728 177.94117647058826,164.2639478270378 183.82352941176472,164.26394782703784 186.76470588235296,160.69796087027837 192.64705882352942,160.69796087027837 195.58823529411768,157.13197391351892 201.47058823529414,157.13197391351892 204.41176470588238,160.69796087027837 201.47058823529414,164.2639478270378 204.41176470588238,167.82993478379728 210.29411764705884,167.82993478379728 213.23529411764707,164.2639478270378 219.11764705882356,164.2639478270378 222.0588235294118,167.82993478379728 227.94117647058826,167.82993478379728 230.8823529411765,171.39592174055673 227.94117647058826,174.9619086973162 222.0588235294118,174.9619086973162 219.11764705882356,178.52789565407565 222.0588235294118,182.0938826108351 219.11764705882356,185.65986956759454 222.0588235294118,189.225856524354 227.94117647058826,189.225856524354 230.8823529411765,192.79184348111346 227.94117647058826,196.3578304378729 230.8823529411765,199.92381739463238 227.94117647058826,203.48980435139183 222.0588235294118,203.48980435139183 219.11764705882356,207.05579130815127 222.0588235294118,210.62177826491072 227.94117647058826,210.62177826491072 230.8823529411765,214.18776522167016 227.94117647058826,217.7537521784296 230.8823529411765,221.31973913518905 227.94117647058826,224.88572609194853 222.0588235294118,224.88572609194853 219.11764705882354,228.451713048708 213.23529411764707,228.451713048708 210.29411764705884,232.01770000546745 213.23529411764707,235.5836869622269 210.29411764705884,239.14967391898634 213.23529411764707,242.71566087574578 210.29411764705884,246.28164783250523 204.41176470588238,246.28164783250523 201.47058823529414,242.71566087574578 195.58823529411768,242.71566087574578 192.64705882352942,246.28164783250523 186.76470588235296,246.28164783250523 183.82352941176472,249.84763478926473 186.76470588235296,253.41362174602412 183.82352941176472,256.97960870278365 186.76470588235296,260.5455956595431 183.82352941176472,264.11158261630254 177.94117647058826,264.11158261630254 175.00000000000003,260.5455956595431 169.11764705882356,260.5455956595431 166.1764705882353,264.11158261630254 160.29411764705884,264.11158261630254 157.3529411764706,260.5455956595431 160.29411764705884,256.97960870278365 157.3529411764706,253.41362174602412 151.47058823529414,253.41362174602412 148.5294117647059,249.84763478926473 142.64705882352945,249.84763478926467 139.7058823529412,253.41362174602412 133.82352941176472,253.41362174602412 130.8823529411765,249.84763478926473 125.00000000000003,249.84763478926467 122.0588235294118,253.41362174602412 116.17647058823533,253.41362174602412 113.2352941176471,256.97960870278365 116.17647058823533,260.5455956595431 113.2352941176471,264.11158261630254 107.35294117647061,264.11158261630254 104.41176470588238,260.5455956595431 107.35294117647061,256.97960870278365 104.41176470588238,253.41362174602412 98.52941176470591,253.41362174602412 95.58823529411768,249.84763478926473 89.70588235294122,249.84763478926467 86.76470588235298,246.28164783250523 80.88235294117649,246.28164783250523 77.94117647058826,242.71566087574578 80.88235294117649,239.14967391898634 77.94117647058826,235.5836869622269 72.0588235294118,235.5836869622269 69.11764705882356,239.14967391898634 63.23529411764709,239.14967391898634 60.29411764705885,235.5836869622269 63.23529411764709,232.01770000546745 60.29411764705885,228.451713048708 63.23529411764709,224.88572609194853 60.29411764705885,221.31973913518905 63.23529411764709,217.7537521784296 60.29411764705885,214.18776522167016 63.23529411764709,210.62177826491072 60.29411764705885,207.05579130815127 54.41176470588238,207.05579130815127 51.47058823529415,203.48980435139183 54.41176470588238,199.92381739463238 51.47058823529415,196.3578304378729 45.58823529411769,196.3578304378729 42.647058823529456,192.79184348111346 45.58823529411769,189.225856524354 51.47058823529415,189.225856524354 54.41176470588238,185.65986956759454 51.47058823529415,182.0938826108351 54.41176470588238,178.52789565407565 60.29411764705885,178.52789565407565 63.23529411764709,174.9619086973162 69.11764705882356,174.9619086973162 72.0588235294118,171.39592174055673 69.11764705882356,167.82993478379728 63.23529411764709,167.82993478379728 60.29411764705885,164.26394782703784 63.23529411764709,160.69796087027837 60.29411764705885,157.13197391351892 63.23529411764709,153.56598695675947 69.11764705882356,153.56598695675947 72.0588235294118,150.00000000000003 69.11764705882356,146.43401304324058 72.0588235294118,142.8680260864811 77.94117647058826,142.8680260864811 80.88235294117649,139.30203912972166 77.94117647058826,135.73605217296222 80.88235294117649,132.17006521620274 86.76470588235298,132.17006521620274 89.70588235294122,135.73605217296222 95.58823529411768,135.73605217296222 98.52941176470591,132.17006521620274 104.41176470588238,132.17006521620274 107.35294117647061,135.73605217296222 104.41176470588238,139.30203912972166 107.35294117647061,142.8680260864811 113.2352941176471,142.8680260864811 116.17647058823533,146.43401304324058 122.0588235294118,146.43401304324058 125.00000000000003,150.00000000000003 130.8823529411765,150.00000000000003 133.82352941176472,153.56598695675947 130.8823529411765,157.13197391351892 125.00000000000003,157.13197391351892 122.0588235294118,160.69796087027837 125.00000000000003,164.26394782703784 122.0588235294118,167.82993478379728 125.00000000000003,171.39592174055673 122.0588235294118,174.9619086973162 125.00000000000003,178.52789565407565 130.8823529411765,178.52789565407565 133.82352941176472,174.9619086973162 139.7058823529412,174.9619086973162 142.64705882352945,171.39592174055673 148.5294117647059,171.39592174055673 151.47058823529414,167.82993478379728 157.3529411764706,167.82993478379728" class="countrypath borderoutside" /><polygon points=" 113.2352941176471,242.71566087574578 107.35294117647061,242.71566087574578 104.41176470588238,246.28164783250523 107.35294117647061,249.84763478926467 113.2352941176471,249.84763478926467 116.17647058823533,246.28164783250523" class="countrypath borderinside" /></svg>