<svg width="300" height="300" version="1.1" xmlns="http://www.w3.org/2000/svg" xmlns:xlink= "http://www.w3.org/1999/xlink"><style type="text/css" ><![CDATA[.countrypath {stroke-width:2; stroke: #eee; fill:#000; stroke-opacity:1; fill-opacity:0.7}]]></style><polygon points=" 69.44444444444446,69.1709623134524 80.55555555555557,69.1709623134524 86.11111111111113,62.435209172906774 97.22222222222223,62.435209172906774 102.7777777777778,55.69945603236115 113.88888888888889,55.69945603236115 119.44444444444446,48.96370289181552 113.88888888888889,42.22794975126988 119.44444444444446,35.49219661072426 130.55555555555557,35.49219661072426 136.11111111111111,42.22794975126988 130.55555555555557,48.96370289181551 136.11111111111111,55.69945603236115 130.55555555555557,62.435209172906774 136.11111111111111,69.1709623134524 147.22222222222223,69.1709623134524 152.7777777777778,62.435209172906774 163.88888888888889,62.435209172906774 169.44444444444446,69.1709623134524 163.88888888888889,75.90671545399803 169.44444444444446,82.64246859454369 180.55555555555557,82.64246859454369 186.11111111111111,89.37822173508931 197.22222222222223,89.37822173508931 202.7777777777778,96.11397487563494 197.22222222222223,102.84972801618056 202.7777777777778,109.58548115672619 197.22222222222223,116.32123429727184 202.7777777777778,123.05698743781747 197.22222222222223,129.7927405783631 202.7777777777778,136.52849371890872 213.88888888888889,136.52849371890872 219.44444444444443,143.26424685945435 230.55555555555557,143.26424685945435 236.11111111111111,150 230.55555555555557,156.73575314054563 236.11111111111111,163.47150628109125 230.55555555555557,170.2072594216369 219.44444444444443,170.20725942163688 213.88888888888889,176.94301256218253 219.44444444444443,183.67876570272816 230.55555555555557,183.67876570272816 236.11111111111111,190.41451884327378 230.55555555555557,197.1502719838194 236.11111111111111,203.88602512436503 247.22222222222226,203.88602512436503 252.7777777777778,210.62177826491066 247.22222222222226,217.3575314054563 236.11111111111111,217.3575314054563 230.55555555555557,224.09328454600194 219.44444444444443,224.09328454600194 213.88888888888889,217.3575314054563 202.7777777777778,217.3575314054563 197.2222222222222,210.6217782649107 186.11111111111111,210.62177826491066 180.55555555555557,217.3575314054563 169.44444444444446,217.3575314054563 163.88888888888889,210.6217782649107 152.7777777777778,210.62177826491066 147.22222222222223,217.3575314054563 136.11111111111111,217.3575314054563 130.55555555555557,224.09328454600194 119.44444444444446,224.09328454600194 113.88888888888889,217.3575314054563 102.77777777777777,217.3575314054563 97.22222222222223,210.6217782649107 86.11111111111111,210.6217782649107 80.55555555555556,203.88602512436503 69.44444444444446,203.88602512436503 63.888888888888886,197.1502719838194 52.7777777777778,197.1502719838194 47.22222222222223,203.88602512436503 36.11111111111113,203.88602512436503 30.555555555555557,210.6217782649107 19.444444444444457,210.6217782649107 13.8888888888889,203.88602512436503 19.444444444444457,197.1502719838194 13.8888888888889,190.41451884327378 2.7777777777778,190.41451884327378 -2.7777777777777573,197.1502719838194 -13.888888888888872,197.1502719838194 -19.44444444444443,190.41451884327378 -13.888888888888872,183.67876570272816 -19.44444444444443,176.94301256218253 -30.555555555555543,176.94301256218253 -36.111111111111086,170.20725942163688 -30.555555555555543,163.47150628109125 -36.111111111111086,156.73575314054563 -30.555555555555543,150 -36.111111111111086,143.26424685945435 -30.555555555555543,136.52849371890872 -19.44444444444443,136.52849371890872 -13.888888888888872,129.7927405783631 -2.7777777777777573,129.7927405783631 2.7777777777778,123.05698743781747 -2.7777777777777573,116.32123429727184 -13.888888888888872,116.32123429727184 -19.44444444444443,109.58548115672619 -13.888888888888872,102.84972801618056 -2.7777777777777573,102.84972801618056 2.7777777777778,96.11397487563494 -2.7777777777777573,89.37822173508931 2.7777777777778,82.64246859454369 -2.7777777777777573,75.90671545399803 2.7777777777778,69.1709623134524 13.8888888888889,69.1709623134524 19.444444444444457,75.90671545399803 30.55555555555557,75.90671545399803 36.11111111111113,69.1709623134524 47.22222222222223,69.1709623134524 52.7777777777778,62.435209172906774 47.22222222222223,55.69945603236115 36.11111111111113,55.69945603236115 30.55555555555557,48.96370289181552 36.11111111111113,42.22794975126988 47.22222222222223,42.22794975126988 52.7777777777778,48.96370289181551 63.8888888888889,48.96370289181551 69.44444444444446,55.69945603236115 63.8888888888889,62.435209172906774" class="countrypath borderoutside" /><polygon points=" 197.22222222222223,197.1502719838194 202.7777777777778,203.88602512436503 213.88888888888889,203.88602512436503 219.44444444444443,197.1502719838194 213.88888888888889,190.41451884327378 202.7777777777778,190.41451884327378" class="countrypath borderinside" /></svg>