<svg width="300" height="300" version="1.1" xmlns="http://www.w3.org/2000/svg" xmlns:xlink= "http://www.w3.org/1999/xlink"><style type="text/css" ><![CDATA[.countrypath {stroke-width:2; stroke: #eee; fill:#000; stroke-opacity:1; fill-opacity:0.7}]]></style><polygon points=" 175,154.66321371268543 171.15384615384613,159.32642742537087 175,163.9896411380563 182.69230769230768,163.9896411380563 186.53846153846155,168.65285485074173 182.69230769230768,173.31606856342717 186.53846153846155,177.9792822761126 182.69230769230768,182.64249598879803 175,182.64249598879803 171.15384615384613,177.9792822761126 175,173.31606856342717 171.15384615384613,168.65285485074173 163.46153846153845,168.65285485074173 159.61538461538464,173.31606856342717 151.9230769230769,173.31606856342717 148.0769230769231,177.9792822761126 140.38461538461536,177.9792822761126 136.53846153846155,182.64249598879803 140.38461538461536,187.30570970148347 136.53846153846155,191.96892341416896 128.84615384615387,191.96892341416896 125.00000000000001,196.6321371268544 117.30769230769234,196.6321371268544 113.46153846153847,191.96892341416896 105.76923076923079,191.96892341416896 101.92307692307692,196.6321371268544 94.23076923076924,196.6321371268544 90.3846153846154,201.29535083953982 82.6923076923077,201.29535083953982 78.84615384615385,196.6321371268544 71.15384615384617,196.6321371268544 67.3076923076923,201.29535083953982 59.61538461538463,201.29535083953982 55.76923076923079,196.6321371268544 48.076923076923094,196.6321371268544 44.23076923076924,191.96892341416896 36.53846153846156,191.96892341416896 32.69230769230769,187.30570970148347 25.000000000000014,187.30570970148347 21.153846153846175,182.64249598879803 13.461538461538481,182.64249598879803 9.615384615384627,177.9792822761126 1.9230769230769482,177.9792822761126 -1.9230769230769056,173.31606856342717 -9.615384615384599,173.31606856342717 -13.461538461538439,168.65285485074173 -9.615384615384599,163.9896411380563 -13.461538461538439,159.32642742537087 -9.615384615384599,154.66321371268543 -1.9230769230769056,154.66321371268543 1.9230769230769482,159.32642742537087 9.615384615384642,159.32642742537087 13.461538461538481,154.66321371268543 9.615384615384627,150 1.9230769230769482,150 -1.9230769230769056,145.33678628731457 1.9230769230769482,140.67357257462913 -1.9230769230769056,136.0103588619437 1.9230769230769482,131.34714514925827 -1.9230769230769056,126.68393143657282 -9.615384615384599,126.68393143657279 -13.461538461538439,122.02071772388736 -9.615384615384599,117.35750401120193 -13.461538461538439,112.69429029851649 -21.153846153846132,112.69429029851649 -24.99999999999997,108.03107658583106 -32.692307692307665,108.03107658583106 -36.53846153846152,103.36786287314563 -44.23076923076921,103.36786287314563 -48.07692307692305,98.70464916046019 -44.23076923076921,94.04143544777476 -36.53846153846152,94.04143544777476 -32.692307692307665,89.3782217350893 -24.99999999999997,89.3782217350893 -21.153846153846132,84.71500802240386 -24.99999999999997,80.05179430971843 -21.153846153846132,75.388580597033 -13.461538461538439,75.388580597033 -9.615384615384599,70.72536688434757 -1.9230769230769056,70.72536688434757 1.9230769230769482,66.06215317166212 -1.9230769230769056,61.39893945897667 -9.615384615384599,61.39893945897667 -13.461538461538439,56.73572574629124 -9.615384615384599,52.072512033605804 -1.9230769230769056,52.072512033605804 1.9230769230769482,47.40929832092037 9.615384615384642,47.40929832092037 13.461538461538481,42.74608460823494 21.153846153846175,42.74608460823494 25.000000000000014,47.40929832092037 32.69230769230771,47.40929832092037 36.53846153846156,42.74608460823494 32.69230769230771,38.08287089554949 36.53846153846156,33.41965718286406 44.23076923076924,33.41965718286406 48.076923076923094,38.08287089554949 55.76923076923079,38.08287089554949 59.61538461538463,33.41965718286406 55.76923076923079,28.756443470178624 59.61538461538463,24.093229757493177 67.30769230769234,24.093229757493177 71.15384615384617,28.756443470178624 78.84615384615385,28.756443470178624 82.6923076923077,24.093229757493177 78.84615384615385,19.430016044807743 82.6923076923077,14.766802332122296 78.84615384615385,10.103588619436863 82.6923076923077,5.44037490675143 90.3846153846154,5.44037490675143 94.23076923076924,10.103588619436863 101.92307692307692,10.103588619436863 105.76923076923079,5.44037490675143 113.46153846153847,5.44037490675143 117.30769230769234,10.103588619436863 125.00000000000001,10.103588619436863 128.84615384615387,5.44037490675143 136.53846153846155,5.44037490675143 140.38461538461536,10.103588619436863 148.0769230769231,10.103588619436863 151.9230769230769,5.44037490675143 159.61538461538464,5.44037490675143 163.46153846153845,10.103588619436863 159.61538461538464,14.766802332122296 163.46153846153845,19.430016044807743 171.15384615384613,19.430016044807743 175,24.093229757493177 182.69230769230768,24.093229757493177 186.53846153846155,28.756443470178624 194.23076923076923,28.756443470178624 198.0769230769231,33.41965718286406 205.76923076923072,33.41965718286406 209.61538461538464,38.08287089554949 217.30769230769226,38.08287089554949 221.15384615384613,33.41965718286406 228.8461538461538,33.41965718286406 232.69230769230768,38.08287089554949 240.38461538461536,38.08287089554949 244.23076923076923,42.74608460823494 240.38461538461536,47.40929832092037 244.23076923076923,52.072512033605804 240.38461538461536,56.73572574629124 244.23076923076923,61.39893945897667 251.9230769230769,61.39893945897667 255.76923076923072,66.06215317166212 251.9230769230769,70.72536688434757 244.23076923076923,70.72536688434757 240.38461538461536,75.388580597033 244.23076923076923,80.05179430971843 251.9230769230769,80.05179430971843 255.76923076923072,84.71500802240386 263.46153846153845,84.71500802240386 267.30769230769226,89.3782217350893 263.46153846153845,94.04143544777476 255.76923076923072,94.04143544777476 251.9230769230769,89.37822173508933 244.23076923076923,89.3782217350893 240.38461538461536,84.71500802240386 232.69230769230768,84.71500802240386 228.8461538461538,89.3782217350893 232.69230769230768,94.04143544777476 240.38461538461536,94.04143544777476 244.23076923076923,98.70464916046019 251.9230769230769,98.70464916046019 255.76923076923072,103.36786287314563 251.9230769230769,108.03107658583106 244.23076923076923,108.03107658583106 240.38461538461536,112.69429029851649 244.23076923076923,117.35750401120193 251.9230769230769,117.35750401120193 255.76923076923072,122.02071772388736 251.9230769230769,126.68393143657282 255.76923076923072,131.34714514925827 251.9230769230769,136.0103588619437 244.23076923076923,136.0103588619437 240.38461538461536,131.34714514925827 232.69230769230768,131.34714514925827 228.8461538461538,126.68393143657282 221.15384615384613,126.68393143657282 217.30769230769226,131.34714514925827 221.15384615384613,136.0103588619437 217.30769230769226,140.67357257462913 209.61538461538464,140.67357257462913 205.76923076923072,145.33678628731457 198.0769230769231,145.33678628731457 194.23076923076923,150 186.53846153846155,150 182.69230769230768,154.66321371268543" class="countrypath borderoutside" /></svg>