<svg width="300" height="300" version="1.1" xmlns="http://www.w3.org/2000/svg" xmlns:xlink= "http://www.w3.org/1999/xlink"><polygon points=" 125.76,76.52 128.79,72.85 116.67,65.5 119.7,61.82 116.67,58.15 128.79,50.8 134.85,50.8 137.88,39.78 162.12,47.13 165.15,50.8 189.39,43.45 192.42,47.13 180.3,54.47 183.33,58.15 189.39,58.15 192.42,69.17 198.48,69.17 201.52,65.5 207.58,65.5 210.61,69.17 225.76,65.5 228.79,69.17 225.76,72.85 228.79,76.52 225.76,80.19 228.79,83.87 225.76,87.54 228.79,98.56 234.85,98.56 246.97,91.22 253.03,91.22 256.06,94.89 253.03,105.91 256.06,109.59 262.12,109.59 265.15,113.26 262.12,116.93 274.24,124.28 262.12,131.63 265.15,135.3 262.12,138.98 256.06,138.98 253.03,150 265.15,157.35 280.3,153.67 283.33,157.35 271.21,164.7 274.24,175.72 262.12,183.07 265.15,194.09 253.03,201.44 256.06,205.11 253.03,208.78 246.97,208.78 234.85,216.13 237.88,219.81 234.85,230.83 210.61,238.18 198.48,245.53 192.42,245.53 189.39,241.85 192.42,230.83 189.39,227.15 183.33,227.15 171.21,234.5 156.06,230.83 153.03,234.5 156.06,238.18 143.94,245.53 128.79,241.85 125.76,238.18 128.79,234.5 125.76,230.83 119.7,230.83 107.58,238.18 110.61,241.85 107.58,245.53 101.52,245.53 98.48,241.85 101.52,238.18 89.39,230.83 65.15,238.18 62.12,234.5 65.15,230.83 62.12,227.15 65.15,216.13 53.03,208.78 46.97,208.78 25.76,219.81 19.7,219.81 16.67,216.13 28.79,208.78 25.76,205.11 19.7,205.11 16.67,194.09 10.61,194.09 -1.52,186.74 1.52,183.07 -1.52,179.39 10.61,172.04 7.58,168.37 10.61,164.7 -1.52,157.35 10.61,150 7.58,146.33 10.61,142.65 7.58,138.98 1.52,138.98 -1.52,142.65 -7.58,142.65 -10.61,138.98 -7.58,127.96 -19.7,120.61 -16.67,116.93 -1.52,120.61 1.52,116.93 -1.52,113.26 10.61,105.91 25.76,109.59 28.79,105.91 25.76,94.89 28.79,91.22 34.85,91.22 37.88,80.19 53.03,83.87 56.06,72.85 80.3,80.19 83.33,69.17 80.3,65.5 74.24,65.5 71.21,61.82 74.24,58.15 89.39,61.82 92.42,65.5 107.58,61.82 110.61,65.5 98.48,72.85 101.52,76.52 107.58,76.52 110.61,72.85 116.67,72.85 119.7,76.52" class="countrypath borderoutside" /><polygon points=" 65.15,98.56 71.21,98.56 74.24,94.89 71.21,83.87 65.15,83.87 62.12,94.89" class="countrypath borderinside" /></svg>