<svg width="300" height="300" version="1.1" xmlns="http://www.w3.org/2000/svg" xmlns:xlink= "http://www.w3.org/1999/xlink"><polygon points=" 111.11,89.38 155.56,75.91 161.11,69.17 155.56,62.44 161.11,55.7 172.22,55.7 177.78,62.44 172.22,69.17 177.78,89.38 205.56,82.64 211.11,102.85 238.89,109.59 244.44,116.32 238.89,123.06 244.44,143.26 238.89,150 277.78,170.21 272.22,190.41 261.11,190.41 255.56,197.15 261.11,203.89 272.22,203.89 277.78,210.62 272.22,217.36 294.44,230.83 272.22,244.3 227.78,230.83 222.22,237.56 194.44,230.83 188.89,237.56 161.11,244.3 105.56,217.36 94.44,217.36 72.22,230.83 61.11,230.83 55.56,210.62 27.78,217.36 22.22,210.62 27.78,203.89 5.56,190.41 11.11,183.68 5.56,163.47 44.44,143.26 22.22,129.79 44.44,116.32 38.89,96.11 44.44,89.38 55.56,89.38 61.11,96.11 88.89,89.38 94.44,82.64 88.89,75.91 77.78,75.91 72.22,69.17 77.78,62.44 105.56,69.17 111.11,75.91 105.56,82.64" class="countrypath borderoutside" /><polygon points=" 238.89,217.36 244.44,224.09 255.56,224.09 261.11,217.36 255.56,210.62 244.44,210.62" class="countrypath borderinside" /></svg>