<svg width="300" height="300" version="1.1" xmlns="http://www.w3.org/2000/svg" xmlns:xlink= "http://www.w3.org/1999/xlink"><polygon points=" 250,196.63 246.15,201.3 261.54,210.62 257.69,224.61 250,224.61 246.15,210.62 238.46,210.62 234.62,215.28 215.38,219.95 211.54,224.61 215.38,229.27 200,238.6 180.77,233.94 165.38,243.26 157.69,243.26 153.85,238.6 134.62,243.26 130.77,238.6 100,229.27 73.08,215.28 65.38,215.28 61.54,210.62 65.38,196.63 84.62,201.3 88.46,196.63 73.08,187.31 76.92,173.32 73.08,168.65 65.38,168.65 61.54,154.66 30.77,145.34 26.92,140.67 30.77,136.01 50,131.35 53.85,117.36 61.54,117.36 76.92,108.03 73.08,103.37 65.38,103.37 61.54,98.7 65.38,94.04 73.08,94.04 88.46,84.72 107.69,89.38 111.54,75.39 130.77,80.05 134.62,66.06 153.85,70.73 157.69,66.06 153.85,52.07 157.69,47.41 165.38,47.41 169.23,52.07 176.92,52.07 180.77,47.41 188.46,47.41 192.31,52.07 200,52.07 203.85,47.41 223.08,52.07 226.92,47.41 234.62,47.41 238.46,61.4 280.77,75.39 284.62,80.05 292.31,80.05 296.15,75.39 315.38,80.05 319.23,84.72 315.38,98.7 330.77,108.03 315.38,117.36 342.31,131.35 338.46,136.01 330.77,136.01 315.38,126.68 307.69,126.68 303.85,131.35 330.77,145.34 315.38,154.66 330.77,163.99 326.92,177.98 296.15,168.65 292.31,182.64 273.08,187.31 257.69,196.63" class="countrypath borderoutside" /></svg>